<svg width="74" height="74" viewBox="0 0 74 74" fill="none" xmlns="http://www.w3.org/2000/svg">
<rect width="74" height="74" rx="12" fill="#FA7436"/>
<g clip-path="url(#clip0_203_1142)">
<path d="M41.9593 39.8333H40.8402L40.4435 39.4508C41.8318 37.8358 42.6677 35.7392 42.6677 33.4583C42.6677 28.3725 38.5452 24.25 33.4593 24.25C28.3735 24.25 24.251 28.3725 24.251 33.4583C24.251 38.5442 28.3735 42.6667 33.4593 42.6667C35.7401 42.6667 37.8368 41.8308 39.4518 40.4425L39.8343 40.8392V41.9583L46.9177 49.0275L49.0285 46.9167L41.9593 39.8333ZM33.4593 39.8333C29.9318 39.8333 27.0843 36.9858 27.0843 33.4583C27.0843 29.9308 29.9318 27.0833 33.4593 27.0833C36.9868 27.0833 39.8343 29.9308 39.8343 33.4583C39.8343 36.9858 36.9868 39.8333 33.4593 39.8333Z" fill="white"/>
</g>
<defs>
<clipPath id="clip0_203_1142">
<rect width="34" height="34" fill="white" transform="translate(20.001 20)"/>
</clipPath>
</defs>
</svg>
